<svg xmlns="http://www.w3.org/2000/svg" width="457" height="202" viewBox="0 0 457 202">
    <g fill="none" fill-rule="evenodd">
        <g fill="#FFF" fill-rule="nonzero">
            <path d="M356 108.546c0-4.5-1.335-8.919-3.798-12.68a26.921 26.921 0 0 0 3.795-13.821c0-9.01-4.467-17.346-11.85-22.449a19.36 19.36 0 0 0 1.245-6.822c0-9.654-7.119-17.706-16.466-19.35-.483-9.788-8.277-17.717-18.117-18.608-2.934-6.15-9.336-10.263-16.38-10.263-1.809 0-3.609.27-5.325.789a14.414 14.414 0 0 0-11.196-5.34c-7.878 0-14.285 6.3-14.285 14.042v50.223c0 6.114 2.772 11.88 7.35 15.806-4.626 4.158-7.35 10.08-7.35 16.416v30.906c0 3.747.942 7.377 2.748 10.629a20.503 20.503 0 0 0-2.748 10.293v24.026c0 10.836 8.97 19.656 19.992 19.656 7.212 0 13.706-3.765 17.24-9.693a20.16 20.16 0 0 0 8.1 1.68c10.9 0 19.79-8.62 19.992-19.284 11.106-3.207 18.872-13.208 18.872-24.87 0-4.055-.95-7.991-2.769-11.567 6.759-4.26 10.95-11.64 10.95-19.719zm-14.286 13.458c-4.887-8.325-14.663-10.02-19.772-10.29a19.724 19.724 0 0 0-6.795-10.704c-1.518-1.227-3.756-1.017-4.998.474a3.445 3.445 0 0 0 .483 4.91c3.03 2.455 4.767 6.073 4.767 9.922 0 7.08-5.856 12.84-13.056 12.84-7.197 0-13.052-5.758-13.052-12.84 0-3.075 1.125-6.048 3.159-8.376.045-.054.057-.12.099-.174.98-.144 1.959-.357 2.925-.711 7.46-2.74 11.27-10.932 8.493-18.273-.69-1.806-2.73-2.709-4.57-2.052-1.835.675-2.768 2.688-2.087 4.494 1.416 3.729-.52 7.899-4.317 9.291-3.801 1.392-8.037-.516-9.453-4.245-.684-1.806-2.733-2.724-4.566-2.049-1.836.672-2.772 2.682-2.085 4.491 1.434 3.777 4.35 6.57 7.848 8.052-1.632 2.913-2.547 6.189-2.547 9.558 0 10.929 9.042 19.82 20.153 19.82 10.272 0 18.762-7.604 19.986-17.384 4.374.357 12.054 2.016 14.372 9.207.105.324.267.609.45.876.018.024.018.057.036.084a18.58 18.58 0 0 1 3.522 10.914c0 7.935-4.944 14.784-12.176 17.586-1.137-6.831-5.703-11.271-5.94-11.493a3.595 3.595 0 0 0-5.022.129 3.453 3.453 0 0 0 .132 4.938c.048.042 4.623 4.5 3.975 10.617-.018.153.039.288.042.438.003.15-.045.29-.021.444.093.603.14 1.218.14 1.845 0 6.99-5.783 12.674-12.893 12.674-1.728 0-3.393-.369-4.953-1.01 1.578-4.147 1.857-10.378-3.009-17.031 2.352-3.846 2.301-8.86-.534-12.72a3.59 3.59 0 0 0-4.959-.783 3.458 3.458 0 0 0-.798 4.875c1.497 2.034 1.03 4.893-1.044 6.366-2.067 1.473-4.974 1.017-6.477-1.023a3.589 3.589 0 0 0-4.959-.783 3.456 3.456 0 0 0-.798 4.875c2.295 3.12 5.892 4.776 9.531 4.776 1.578 0 3.153-.342 4.647-.978 4.437 6.507 1.281 11.076.84 11.652-.198.246-.294.53-.414.807-.042.096-.132.162-.165.264-1.737 5.22-6.66 8.727-12.249 8.727-7.107 0-12.89-5.688-12.89-12.675v-24.027c0-1.713.344-3.366.944-4.929 3.162 2.052 8.247 4.395 15.243 4.395.333 0 .67-.003 1.008-.018 1.962-.063 3.498-1.674 3.432-3.6-.063-1.89-1.638-3.378-3.543-3.378-.042 0-.08 0-.117.003-.267.006-.528.01-.783.01-8.136 0-12.702-4.08-13.539-4.906a15.004 15.004 0 0 1-2.646-8.502V96.49c0-5.622 3.132-10.776 8.17-13.446.083-.045.146-.114.227-.165.045-.027.1-.03.144-.06.774-.534 7.794-5.028 15.207 1.18a3.584 3.584 0 0 0 2.301.83 3.58 3.58 0 0 0 2.706-1.227 3.454 3.454 0 0 0-.402-4.923c-8.18-6.846-16.986-5.205-21.906-2.745-3.96-2.55-6.447-6.95-6.447-11.67v-50.22c0-3.894 3.222-7.059 7.185-7.059 2.484 0 4.725 1.33 6.027 3.378-.63 2.844-2.124 6.783-4.299 8.05a3.456 3.456 0 0 0-1.245 4.781 3.558 3.558 0 0 0 3.057 1.71c.615 0 1.24-.156 1.806-.489 4.72-2.748 6.753-8.913 7.527-12.191 1.17-.409 2.391-.694 3.648-.694 4.698 0 8.91 3.025 10.392 7.38.042 1.933-.08 9.66-4.458 14.478-1.68 1.854-3.807 3.045-6.42 3.648a11.066 11.066 0 0 0-7.236-8.13c-1.833-.633-3.873.324-4.52 2.148-.646 1.821.332 3.807 2.183 4.446 2.14.732 3.273 3.042 2.532 5.142-.744 2.106-3.09 3.228-5.229 2.49-1.863-.63-3.876.327-4.52 2.148-.646 1.821.332 3.81 2.183 4.446 1.218.417 2.454.615 3.675.615 4.188 0 8.121-2.34 10.032-6.138 5.166-.627 9.453-2.649 12.657-6.195 4.53-5.016 5.8-11.718 6.126-15.957 5.73 1.288 10.03 6.319 10.03 12.337 0 .593-.049 1.181-.13 1.755-.036.255.051.498.081.75-.246 2.199-1.218 5.978-2.868 7.026a3.455 3.455 0 0 0-1.053 4.827 3.57 3.57 0 0 0 2.985 1.596c.66 0 1.33-.18 1.923-.559 3.345-2.123 4.884-6.26 5.586-9.306 5.67 1.33 9.915 6.325 9.915 12.3 0 1.065-.147 2.118-.414 3.144-6.108-2.742-16.029-4.164-26.319 2.493-3.003-1.923-6.516-2.889-10.14-2.664-4.437.291-8.499 2.26-11.43 5.553a3.452 3.452 0 0 0 .336 4.926 3.593 3.593 0 0 0 5.01-.33 9.526 9.526 0 0 1 6.55-3.18c2.534-.156 5.006.651 6.926 2.307a9.292 9.292 0 0 1 .891 13.254 3.452 3.452 0 0 0 .336 4.926 3.565 3.565 0 0 0 2.337.864c.987 0 1.968-.402 2.673-1.194 4.92-5.53 5.298-13.386 1.578-19.338 11.358-6.549 20.4-.135 20.823.177.081.06.177.072.261.123.075.048.126.126.207.171 6.771 3.576 10.98 10.491 10.98 18.042 0 2.739-.603 5.382-1.659 7.863a15.065 15.065 0 0 0-7.659-3.288 16.453 16.453 0 0 0-11.103-11.91c-1.848-.58-3.867.426-4.46 2.259-.595 1.827.437 3.795 2.303 4.38 3.885 1.224 6.55 4.746 6.633 8.757.072 3.375-1.722 6.546-4.677 8.274-1.686.984-2.24 3.126-1.239 4.782a3.56 3.56 0 0 0 3.054 1.707c.618 0 1.242-.156 1.812-.492a16.404 16.404 0 0 0 7.755-10.662c1.59.414 3.597 1.455 5.223 4.07.054.088.13.15.19.232.035.048.047.105.086.15 2.448 2.96 3.744 6.549 3.744 10.37-.001 5.457-2.752 10.425-7.18 13.46zM256.375 64.266V14.044c0-7.743-6.408-14.043-14.286-14.043a14.41 14.41 0 0 0-11.196 5.34 18.424 18.424 0 0 0-5.325-.785c-7.041 0-13.446 4.11-16.38 10.26-9.84.893-17.633 8.822-18.116 18.608-9.348 1.644-16.467 9.696-16.467 19.35 0 2.334.426 4.647 1.245 6.822C168.467 64.698 164 73.032 164 82.044c0 4.902 1.305 9.633 3.798 13.824A23.2 23.2 0 0 0 164 108.549c0 8.079 4.191 15.456 10.95 19.719a25.396 25.396 0 0 0-2.772 11.568c0 11.658 7.767 21.66 18.873 24.87.2 10.667 9.096 19.286 19.991 19.286a20.16 20.16 0 0 0 8.1-1.68c3.534 5.925 10.03 9.687 17.24 9.687 11.023 0 19.993-8.82 19.993-19.656v-24.027a20.5 20.5 0 0 0-2.745-10.293 21.838 21.838 0 0 0 2.745-10.629V96.486c0-6.333-2.724-12.255-7.35-16.416 4.58-3.924 7.35-9.693 7.35-15.804zm-7.098 0h-.003c0 4.72-2.487 9.12-6.447 11.67-4.92-2.463-13.725-4.104-21.906 2.742a3.454 3.454 0 0 0-.402 4.923 3.564 3.564 0 0 0 2.703 1.227c.816 0 1.632-.273 2.3-.83 7.414-6.208 14.437-1.717 15.208-1.18.045.03.099.033.144.063.078.051.14.12.228.165 5.037 2.67 8.169 7.824 8.169 13.446v30.906c0 3.05-.924 5.982-2.646 8.502-.837.825-5.403 4.905-13.54 4.905-.257 0-.515-.003-.782-.01-.04-.002-.075-.002-.117-.002-1.908 0-3.48 1.488-3.543 3.378-.066 1.926 1.47 3.537 3.432 3.6.339.015.675.018 1.008.018 6.996 0 12.08-2.343 15.243-4.395.603 1.563.948 3.216.948 4.929v24.026c0 6.987-5.784 12.675-12.891 12.675-5.59 0-10.512-3.507-12.25-8.727-.032-.102-.122-.168-.164-.264-.12-.276-.216-.561-.414-.807-.441-.576-3.597-5.145.84-11.652 1.494.636 3.069.978 4.647.978 3.639 0 7.236-1.656 9.53-4.776a3.451 3.451 0 0 0-.797-4.875c-1.584-1.128-3.804-.78-4.96.783-1.5 2.04-4.41 2.496-6.476 1.023-2.073-1.473-2.541-4.33-1.044-6.366a3.456 3.456 0 0 0-.798-4.875 3.591 3.591 0 0 0-4.96.786c-2.834 3.858-2.885 8.874-.533 12.72-4.866 6.653-4.587 12.884-3.01 17.03-1.56.642-3.224 1.011-4.952 1.011-7.11 0-12.894-5.685-12.894-12.674 0-.627.048-1.243.141-1.845.024-.154-.024-.292-.02-.445.002-.15.06-.285.041-.438-.648-6.117 3.924-10.575 3.975-10.617a3.45 3.45 0 0 0 .132-4.934 3.595 3.595 0 0 0-5.022-.13c-.237.222-4.803 4.662-5.94 11.493-7.23-2.802-12.176-9.65-12.176-17.585a18.6 18.6 0 0 1 3.522-10.911c.018-.024.018-.057.036-.084.183-.267.345-.552.45-.876 2.319-7.191 9.999-8.85 14.372-9.207 1.227 9.783 9.714 17.384 19.986 17.384 11.112 0 20.157-8.892 20.157-19.82 0-3.37-.912-6.645-2.547-9.558 3.498-1.48 6.414-4.272 7.848-8.052.687-1.806-.246-3.82-2.085-4.488-1.833-.675-3.882.243-4.566 2.049-1.416 3.729-5.652 5.634-9.453 4.245-3.795-1.392-5.73-5.56-4.317-9.288.684-1.806-.25-3.82-2.088-4.494-1.842-.657-3.88.246-4.57 2.052-2.78 7.34 1.03 15.533 8.494 18.272.966.355 1.944.567 2.925.712.042.053.054.12.099.174a12.734 12.734 0 0 1 3.159 8.376c0 7.08-5.856 12.84-13.053 12.84-7.197 0-13.053-5.76-13.053-12.84 0-3.85 1.737-7.468 4.767-9.921a3.445 3.445 0 0 0 .483-4.912c-1.242-1.49-3.477-1.7-4.998-.474a19.724 19.724 0 0 0-6.795 10.705c-5.112.27-14.888 1.968-19.772 10.29-4.428-3.037-7.18-8.005-7.18-13.461 0-3.822 1.297-7.407 3.745-10.371.039-.045.05-.102.087-.15.06-.081.135-.144.189-.231 1.626-2.62 3.633-3.657 5.223-4.071a16.411 16.411 0 0 0 7.755 10.662c.57.333 1.194.492 1.809.492a3.56 3.56 0 0 0 3.054-1.707c1.002-1.656.447-3.798-1.24-4.782-2.954-1.728-4.748-4.9-4.676-8.274.087-4.02 2.754-7.542 6.639-8.766 1.869-.588 2.898-2.553 2.298-4.386-.597-1.833-2.616-2.841-4.461-2.26a16.458 16.458 0 0 0-11.103 11.91 15.075 15.075 0 0 0-7.66 3.288c-1.052-2.478-1.658-5.124-1.658-7.86 0-7.55 4.209-14.465 10.98-18.041.08-.042.132-.123.207-.168.084-.051.18-.063.26-.123.424-.312 9.463-6.726 20.823-.174-3.723 5.952-3.342 13.808 1.578 19.337a3.565 3.565 0 0 0 2.673 1.194c.831 0 1.665-.281 2.337-.863a3.452 3.452 0 0 0 .336-4.926 9.292 9.292 0 0 1 .891-13.254c1.92-1.656 4.392-2.466 6.927-2.307a9.538 9.538 0 0 1 6.55 3.18 3.594 3.594 0 0 0 5.01.33 3.452 3.452 0 0 0 .335-4.926c-2.93-3.294-6.99-5.265-11.426-5.553-3.627-.228-7.137.74-10.14 2.664-10.29-6.657-20.211-5.235-26.319-2.493a12.457 12.457 0 0 1-.414-3.144c0-5.976 4.245-10.971 9.915-12.3.702 3.045 2.244 7.182 5.589 9.306a3.59 3.59 0 0 0 1.923.558 3.562 3.562 0 0 0 2.985-1.596 3.455 3.455 0 0 0-1.053-4.827c-1.65-1.047-2.622-4.827-2.868-7.026.03-.252.114-.495.081-.75a12.554 12.554 0 0 1-.129-1.755c0-6.018 4.299-11.046 10.029-12.335.327 4.239 1.596 10.944 6.126 15.956 3.204 3.543 7.491 5.565 12.654 6.195 1.91 3.798 5.844 6.138 10.032 6.138 1.22 0 2.457-.198 3.675-.615 1.85-.633 2.829-2.625 2.184-4.446-.645-1.82-2.661-2.778-4.521-2.148-2.14.741-4.485-.38-5.23-2.49-.74-2.1.394-4.407 2.533-5.142 1.85-.639 2.829-2.625 2.184-4.446-.648-1.824-2.688-2.78-4.521-2.148a11.064 11.064 0 0 0-7.24 8.13c-2.612-.6-4.74-1.794-6.42-3.648-4.376-4.818-4.5-12.545-4.457-14.477 1.482-4.36 5.69-7.38 10.392-7.38 1.257 0 2.475.285 3.648.693.774 3.276 2.808 9.44 7.527 12.191.567.33 1.19.49 1.806.49a3.562 3.562 0 0 0 3.06-1.714 3.456 3.456 0 0 0-1.245-4.782c-2.178-1.266-3.672-5.205-4.302-8.049 1.302-2.049 3.543-3.378 6.027-3.378 3.963 0 7.185 3.168 7.185 7.06v50.223h-.002z"/>
        </g>
        <path stroke="#FFF" stroke-linecap="square" stroke-width="2" d="M222.814 37.815l-67.628-29.63M356.812 179.81l-60.624-24.62M390.785 53.063L310 61.784M190.93 115l-60.61 48.983"/>
        <text fill="#FFF" font-family=".AppleSystemUIFont" font-size="12" letter-spacing=".857">
            <tspan x="74" y="12"># OF RENT </tspan> <tspan x="74" y="27">PAYMENTS</tspan>
        </text>
        <text fill="#FFF" font-family=".AppleSystemUIFont" font-size="12" letter-spacing=".857">
            <tspan x="0" y="170">TRUSTWORTHINESS </tspan> <tspan x="0" y="185">OF IDENTITY</tspan>
        </text>
        <text fill="#FFF" font-family=".AppleSystemUIFont" font-size="12" letter-spacing=".857">
            <tspan x="363" y="186"># OF VERIFIED </tspan> <tspan x="363" y="201">LEASES</tspan>
        </text>
        <text fill="#FFF" font-family=".AppleSystemUIFont" font-size="12" letter-spacing=".857">
            <tspan x="396" y="57">EVICTION </tspan> <tspan x="396" y="72">HISTORY</tspan>
        </text>
    </g>
</svg>
