<svg xmlns="http://www.w3.org/2000/svg" width="407" height="345" viewBox="0 0 407 345">
    <defs>
        <linearGradient id="a" x1="50%" x2="50%" y1="0%" y2="100%">
            <stop offset="0%" stop-opacity=".5"/>
            <stop offset="100%" stop-opacity=".5"/>
        </linearGradient>
    </defs>
    <g fill="none" fill-rule="evenodd">
        <ellipse cx="219" cy="170.5" fill="#080808" rx="157" ry="157.5"/>
        <g fill="#FFF" fill-rule="nonzero">
            <path d="M177.144 260.726c-18-13.296-28.747-34.59-28.747-56.962v-69.043c0-2.024.087-4.068.257-6.073a3.995 3.995 0 0 0-3.638-4.32 3.995 3.995 0 0 0-4.313 3.643c-.19 2.23-.285 4.5-.285 6.75v69.043c0 12.536 3.015 25.012 8.722 36.077 5.519 10.704 13.565 20.15 23.268 27.318a3.981 3.981 0 0 0 5.58-.845 4 4 0 0 0-.844-5.588zM195.762 270.571a70.347 70.347 0 0 1-7.24-2.992 3.986 3.986 0 0 0-5.323 1.876 3.999 3.999 0 0 0 1.873 5.331 78.433 78.433 0 0 0 8.064 3.332c.435.152.878.224 1.313.224a3.992 3.992 0 0 0 3.768-2.682 4 4 0 0 0-2.455-5.089zM293.61 185.603a3.993 3.993 0 0 0-3.99 3.996v14.166c0 38.999-31.675 70.727-70.611 70.727-2.755 0-5.53-.16-8.247-.477a3.99 3.99 0 0 0-4.424 3.509 3.994 3.994 0 0 0 3.502 4.431c3.022.352 6.107.53 9.169.53 43.335 0 78.59-35.314 78.59-78.72v-14.166a3.992 3.992 0 0 0-3.988-3.996zM219.009 56c-16.968 0-33.123 5.33-46.721 15.415-13.328 9.884-23.046 23.425-28.103 39.16a3.998 3.998 0 0 0 2.575 5.028 3.99 3.99 0 0 0 5.021-2.58c4.544-14.133 13.276-26.3 25.255-35.184 12.214-9.058 26.728-13.846 41.973-13.846 38.935 0 70.611 31.728 70.611 70.728v38.892a3.993 3.993 0 0 0 3.99 3.996c2.204 0 3.99-1.79 3.99-3.996V134.72C297.6 91.314 262.344 56 219.009 56z"/>
            <path d="M165.095 225.848a4 4 0 0 0-1.813 5.352 62.478 62.478 0 0 0 22.5 25.096 61.758 61.758 0 0 0 33.227 9.671c8.929 0 17.553-1.867 25.635-5.55a3.999 3.999 0 0 0 1.98-5.292 3.987 3.987 0 0 0-5.284-1.983c-7.037 3.206-14.55 4.832-22.331 4.832a53.8 53.8 0 0 1-28.946-8.423 54.492 54.492 0 0 1-19.625-21.887 3.987 3.987 0 0 0-5.343-1.816zM257.375 251.444c.937 0 1.877-.328 2.635-.998 13.408-11.829 21.098-28.844 21.098-46.681V134.72c0-13.302-4.15-26-12-36.72a3.985 3.985 0 0 0-5.578-.858 4 4 0 0 0-.856 5.587c6.84 9.339 10.455 20.401 10.455 31.991v69.044c0 15.543-6.705 30.371-18.393 40.683a4 4 0 0 0-.357 5.64 3.978 3.978 0 0 0 2.996 1.356zM249.758 90.135a3.983 3.983 0 0 0 5.552-1.008 4 4 0 0 0-1.006-5.561 62.244 62.244 0 0 0-9.576-5.46 3.987 3.987 0 0 0-5.286 1.976 3.999 3.999 0 0 0 1.971 5.295 54.222 54.222 0 0 1 8.345 4.758zM229.399 73.39a62.41 62.41 0 0 0-10.39-.871c-34.241 0-62.1 27.904-62.1 62.202v67.134a3.993 3.993 0 0 0 3.99 3.996c2.204 0 3.99-1.789 3.99-3.996v-67.134c0-29.891 24.279-54.21 54.12-54.21 3.038 0 6.086.256 9.058.76a3.988 3.988 0 0 0 4.6-3.274 3.995 3.995 0 0 0-3.268-4.608z"/>
            <path d="M181.203 109.191a4 4 0 0 0 1.07 5.55 3.987 3.987 0 0 0 5.54-1.073c7.033-10.418 18.695-16.637 31.196-16.637 20.748 0 37.628 16.907 37.628 37.69v44.754a3.993 3.993 0 0 0 3.99 3.996c2.204 0 3.99-1.79 3.99-3.996V134.72c0-25.19-20.46-45.683-45.608-45.683-15.154 0-29.287 7.534-37.806 20.153zM177.391 148.302c2.204 0 3.99-1.79 3.99-3.997v-9.584a3.993 3.993 0 0 0-3.99-3.996 3.993 3.993 0 0 0-3.99 3.996v9.584a3.993 3.993 0 0 0 3.99 3.997zM173.401 203.765c0 16.532 8.98 31.825 23.433 39.912a3.988 3.988 0 0 0 5.429-1.54 4 4 0 0 0-1.538-5.438c-11.932-6.676-19.344-19.295-19.344-32.934v-43.473a3.993 3.993 0 0 0-3.99-3.996 3.993 3.993 0 0 0-3.99 3.996v43.473zM264.617 203.765v-7.239a3.993 3.993 0 0 0-3.99-3.996 3.993 3.993 0 0 0-3.99 3.996v7.239c0 20.782-16.88 37.69-37.627 37.69-3.032 0-6.049-.363-8.966-1.08a3.989 3.989 0 0 0-4.826 2.929 3.997 3.997 0 0 0 2.925 4.833c3.539.87 7.195 1.311 10.867 1.311 25.148 0 45.607-20.494 45.607-45.683z"/>
            <path d="M248.126 135.143c0-16.012-12.81-29.282-28.556-29.581-7.885-.15-15.313 2.815-20.943 8.349-5.633 5.535-8.734 12.926-8.734 20.81v69.044a3.993 3.993 0 0 0 3.99 3.996c2.203 0 3.99-1.79 3.99-3.996V134.72c0-5.72 2.252-11.085 6.343-15.105a21.005 21.005 0 0 1 15.203-6.062c11.428.216 20.727 9.902 20.727 21.59v37.936a3.993 3.993 0 0 0 3.99 3.997c2.204 0 3.99-1.79 3.99-3.997v-37.937z"/>
            <path d="M206.384 208.392c0 11.527 9.363 20.905 20.87 20.905 11.509 0 20.871-9.377 20.871-20.905v-19.326a3.993 3.993 0 0 0-3.99-3.997 3.993 3.993 0 0 0-3.99 3.997v19.326c0 7.12-5.782 12.912-12.89 12.912-7.108 0-12.89-5.792-12.89-12.912v-34.246a3.993 3.993 0 0 0-3.99-3.996 3.993 3.993 0 0 0-3.99 3.996v34.246z"/>
            <path d="M227.644 210.852c2.204 0 3.99-1.79 3.99-3.997v-71.883c0-6.891-5.268-12.549-11.993-12.881a12.5 12.5 0 0 0-9.332 3.472 12.713 12.713 0 0 0-3.925 9.158v22.373a3.993 3.993 0 0 0 3.99 3.997c2.204 0 3.99-1.79 3.99-3.997v-22.373c0-1.283.514-2.48 1.447-3.369a4.598 4.598 0 0 1 3.437-1.278c2.43.12 4.406 2.317 4.406 4.898v71.883a3.993 3.993 0 0 0 3.99 3.997z"/>
        </g>
        <g fill="#FFF" fill-rule="nonzero">
            <path d="M359.085 339.524c-4.453-3.277-7.111-8.525-7.111-14.038v-17.015c0-.5.021-1.003.063-1.497a.987.987 0 0 0-1.967-.167c-.046.55-.07 1.11-.07 1.664v17.015c0 3.09.746 6.164 2.158 8.891a19.584 19.584 0 0 0 5.756 6.733.986.986 0 0 0 1.172-1.585zM363.598 342.104a16.57 16.57 0 0 1-1.709-.709.94.94 0 0 0-1.256.444.948.948 0 0 0 .442 1.263c.617.297 1.257.562 1.903.788a.942.942 0 0 0 1.199-.582.948.948 0 0 0-.58-1.204zM388.01 321.226c-.547 0-.99.44-.99.981v3.476c0 9.57-7.864 17.356-17.53 17.356-.684 0-1.373-.04-2.047-.117a.988.988 0 0 0-1.098.86.983.983 0 0 0 .869 1.088c.75.086 1.516.13 2.276.13 10.758 0 19.51-8.666 19.51-19.317v-3.476a.985.985 0 0 0-.99-.98zM369.586 289c-4.192 0-8.183 1.32-11.542 3.817a19.399 19.399 0 0 0-6.942 9.697.985.985 0 1 0 1.877.607 17.43 17.43 0 0 1 6.238-8.713 17.255 17.255 0 0 1 10.369-3.429c9.618 0 17.443 7.857 17.443 17.514v9.63c0 .547.44.99.985.99a.988.988 0 0 0 .986-.99v-9.63c0-10.748-8.71-19.493-19.414-19.493z"/>
            <path d="M356.341 330.838a.997.997 0 0 0-.443 1.326 15.404 15.404 0 0 0 5.498 6.215 14.945 14.945 0 0 0 8.12 2.395c2.181 0 4.289-.463 6.264-1.375a.996.996 0 0 0 .484-1.31.969.969 0 0 0-1.292-.491 12.924 12.924 0 0 1-5.456 1.196 13.02 13.02 0 0 1-7.074-2.086 13.435 13.435 0 0 1-4.795-5.42.968.968 0 0 0-1.306-.45zM378.919 337.075c.231 0 .464-.08.651-.244a15.23 15.23 0 0 0 5.214-11.45v-16.936c0-3.263-1.026-6.377-2.966-9.007a.99.99 0 0 0-1.378-.21.977.977 0 0 0-.212 1.37 13.129 13.129 0 0 1 2.584 7.847v16.935c0 3.813-1.657 7.45-4.545 9.98a.976.976 0 0 0-.088 1.383c.194.22.466.332.74.332zM376.9 297.28c.173.117.37.173.566.173a1 1 0 0 0 .817-.416.951.951 0 0 0-.251-1.346 15.613 15.613 0 0 0-2.383-1.32 1.004 1.004 0 0 0-1.316.477.956.956 0 0 0 .49 1.282 13.6 13.6 0 0 1 2.078 1.15zM372.357 293.44a15.904 15.904 0 0 0-2.6-.214c-8.57 0-15.54 6.855-15.54 15.281V325a.99.99 0 0 0 .998.982.99.99 0 0 0 .998-.982v-16.492c0-7.343 6.076-13.317 13.544-13.317.76 0 1.523.063 2.267.186a.996.996 0 0 0 1.151-.804.983.983 0 0 0-.818-1.132z"/>
            <path d="M360.18 301.885a.99.99 0 0 0 .263 1.366.97.97 0 0 0 1.354-.264c1.718-2.564 4.568-4.095 7.624-4.095 5.07 0 9.196 4.162 9.196 9.278v11.016a.98.98 0 0 0 .975.984.98.98 0 0 0 .976-.984V308.17c0-6.2-5-11.245-11.147-11.245-3.704 0-7.158 1.854-9.24 4.96zM359.486 311.717c.583 0 1.055-.43 1.055-.961v-2.304c0-.531-.472-.961-1.055-.961-.582 0-1.054.43-1.054.96v2.305c0 .53.472.961 1.054.961zM358.432 325.529c0 4.074 2.256 7.843 5.887 9.836a1.011 1.011 0 0 0 1.364-.38.976.976 0 0 0-.386-1.34c-2.998-1.645-4.86-4.755-4.86-8.116v-10.714a.994.994 0 0 0-1.002-.985.994.994 0 0 0-1.003.985v10.714zM380.568 325.627v-1.814a.995.995 0 0 0-.99-1.002.995.995 0 0 0-.989 1.002v1.814c0 5.208-4.185 9.445-9.33 9.445-.752 0-1.5-.09-2.223-.27a.989.989 0 0 0-1.196.734c-.13.537.194 1.08.725 1.211a11.19 11.19 0 0 0 2.694.328c6.236 0 11.309-5.135 11.309-11.448z"/>
            <path d="M376.351 308.492c0-3.973-3.13-7.266-6.977-7.34a6.996 6.996 0 0 0-5.118 2.072 7.242 7.242 0 0 0-2.134 5.163v17.13c0 .548.436.992.975.992a.983.983 0 0 0 .975-.991v-17.13c0-1.42.55-2.751 1.55-3.749a5.092 5.092 0 0 1 3.715-1.504c2.792.054 5.064 2.457 5.064 5.357v9.413c0 .547.437.991.975.991a.983.983 0 0 0 .975-.991v-9.413z"/>
            <path d="M366.338 326.564c0 2.883 2.364 5.228 5.27 5.228 2.906 0 5.27-2.345 5.27-5.228v-4.833c0-.552-.45-1-1.007-1-.557 0-1.008.448-1.008 1v4.833c0 1.78-1.46 3.23-3.255 3.23s-3.255-1.45-3.255-3.23V318c0-.551-.451-.999-1.008-.999-.556 0-1.007.448-1.007 1v8.564z"/>
            <path d="M371.663 327.038c.552 0 1-.437 1-.975v-17.539a3.147 3.147 0 0 0-3.005-3.143 3.18 3.18 0 0 0-2.337.847 3.064 3.064 0 0 0-.983 2.235v5.459c0 .538.447.975 1 .975.551 0 .999-.437.999-.975v-5.46c0-.312.128-.604.362-.821a1.17 1.17 0 0 1 .86-.312c.61.03 1.104.565 1.104 1.195v17.539c0 .538.448.975 1 .975z"/>
        </g>
        <g fill="#FFF" fill-rule="nonzero">
            <path d="M377.085 53.524c-4.453-3.277-7.111-8.525-7.111-14.038V22.471c0-.5.021-1.003.063-1.497a.987.987 0 0 0-1.967-.167c-.046.55-.07 1.11-.07 1.664v17.015c0 3.09.746 6.164 2.158 8.891a19.584 19.584 0 0 0 5.756 6.733.986.986 0 0 0 1.172-1.585zM381.598 56.104a16.57 16.57 0 0 1-1.709-.709.94.94 0 0 0-1.256.444.948.948 0 0 0 .442 1.263c.617.297 1.257.562 1.903.788a.942.942 0 0 0 1.199-.582.948.948 0 0 0-.58-1.204zM406.01 35.226c-.547 0-.99.44-.99.981v3.476c0 9.57-7.864 17.356-17.53 17.356-.684 0-1.373-.04-2.047-.117a.988.988 0 0 0-1.098.86.983.983 0 0 0 .869 1.088c.75.086 1.516.13 2.276.13C398.248 59 407 50.334 407 39.683v-3.476a.985.985 0 0 0-.99-.98zM387.586 3c-4.192 0-8.183 1.32-11.542 3.817a19.399 19.399 0 0 0-6.942 9.697.985.985 0 1 0 1.877.607 17.43 17.43 0 0 1 6.238-8.713 17.255 17.255 0 0 1 10.369-3.429c9.618 0 17.443 7.857 17.443 17.514v9.63c0 .547.44.99.985.99a.988.988 0 0 0 .986-.99v-9.63C407 11.745 398.29 3 387.586 3z"/>
            <path d="M374.341 44.838a.997.997 0 0 0-.443 1.326 15.404 15.404 0 0 0 5.498 6.215 14.945 14.945 0 0 0 8.12 2.395c2.181 0 4.289-.463 6.264-1.375a.996.996 0 0 0 .484-1.31.969.969 0 0 0-1.292-.491 12.924 12.924 0 0 1-5.456 1.196 13.02 13.02 0 0 1-7.074-2.086 13.435 13.435 0 0 1-4.795-5.42.968.968 0 0 0-1.306-.45zM396.919 51.075c.231 0 .464-.08.651-.244a15.23 15.23 0 0 0 5.214-11.45V22.444c0-3.263-1.026-6.377-2.966-9.007a.99.99 0 0 0-1.378-.21.977.977 0 0 0-.212 1.37 13.129 13.129 0 0 1 2.584 7.847V39.38c0 3.813-1.657 7.45-4.545 9.98a.976.976 0 0 0-.088 1.383c.194.22.466.332.74.332zM394.9 11.28c.173.117.37.173.566.173a1 1 0 0 0 .817-.416.951.951 0 0 0-.251-1.346 15.613 15.613 0 0 0-2.383-1.32 1.004 1.004 0 0 0-1.316.477.956.956 0 0 0 .49 1.282 13.6 13.6 0 0 1 2.078 1.15zM390.357 7.44a15.904 15.904 0 0 0-2.6-.214c-8.57 0-15.54 6.855-15.54 15.281V39a.99.99 0 0 0 .998.982.99.99 0 0 0 .998-.982V22.507c0-7.343 6.076-13.317 13.544-13.317.76 0 1.523.063 2.267.186a.996.996 0 0 0 1.151-.804.983.983 0 0 0-.818-1.132z"/>
            <path d="M378.18 15.885a.99.99 0 0 0 .263 1.366.97.97 0 0 0 1.354-.264c1.718-2.564 4.568-4.095 7.624-4.095 5.07 0 9.196 4.162 9.196 9.278v11.016a.98.98 0 0 0 .975.984.98.98 0 0 0 .976-.984V22.17c0-6.2-5-11.245-11.147-11.245-3.704 0-7.158 1.854-9.24 4.96zM377.486 25.717c.583 0 1.055-.43 1.055-.961v-2.304c0-.531-.472-.961-1.055-.961-.582 0-1.054.43-1.054.96v2.305c0 .53.472.961 1.054.961zM376.432 39.529c0 4.074 2.256 7.843 5.887 9.836a1.011 1.011 0 0 0 1.364-.38.976.976 0 0 0-.386-1.34c-2.998-1.645-4.86-4.755-4.86-8.116V28.815a.994.994 0 0 0-1.002-.985.994.994 0 0 0-1.003.985V39.53zM398.568 39.627v-1.814a.995.995 0 0 0-.99-1.002.995.995 0 0 0-.989 1.002v1.814c0 5.208-4.185 9.445-9.33 9.445-.752 0-1.5-.09-2.223-.27a.989.989 0 0 0-1.196.734c-.13.537.194 1.08.725 1.211a11.19 11.19 0 0 0 2.694.328c6.236 0 11.309-5.135 11.309-11.448z"/>
            <path d="M394.351 22.492c0-3.973-3.13-7.266-6.977-7.34a6.996 6.996 0 0 0-5.118 2.072 7.242 7.242 0 0 0-2.134 5.163v17.13c0 .548.436.992.975.992a.983.983 0 0 0 .975-.991v-17.13c0-1.42.55-2.751 1.55-3.749a5.092 5.092 0 0 1 3.715-1.504c2.792.054 5.064 2.457 5.064 5.357v9.413c0 .547.437.991.975.991a.983.983 0 0 0 .975-.991v-9.413z"/>
            <path d="M384.338 40.564c0 2.883 2.364 5.228 5.27 5.228 2.906 0 5.27-2.345 5.27-5.228v-4.833c0-.552-.45-1-1.007-1-.557 0-1.008.448-1.008 1v4.833c0 1.78-1.46 3.23-3.255 3.23s-3.255-1.45-3.255-3.23V32c0-.551-.451-.999-1.008-.999-.556 0-1.007.448-1.007 1v8.564z"/>
            <path d="M389.663 41.038c.552 0 1-.437 1-.975V22.524a3.147 3.147 0 0 0-3.005-3.143 3.18 3.18 0 0 0-2.337.847 3.064 3.064 0 0 0-.983 2.235v5.459c0 .538.447.975 1 .975.551 0 .999-.437.999-.975v-5.46c0-.312.128-.604.362-.821a1.17 1.17 0 0 1 .86-.312c.61.03 1.104.565 1.104 1.195v17.539c0 .538.448.975 1 .975z"/>
        </g>
        <g fill="#FFF" fill-rule="nonzero">
            <path d="M28.085 50.524c-4.453-3.277-7.111-8.525-7.111-14.038V19.471c0-.5.021-1.003.063-1.497a.987.987 0 0 0-1.967-.167c-.046.55-.07 1.11-.07 1.664v17.015c0 3.09.746 6.164 2.158 8.891a19.584 19.584 0 0 0 5.756 6.733.986.986 0 0 0 1.172-1.585zM32.598 53.104a16.57 16.57 0 0 1-1.709-.709.94.94 0 0 0-1.256.444.948.948 0 0 0 .442 1.263c.617.297 1.257.562 1.903.788a.942.942 0 0 0 1.199-.582.948.948 0 0 0-.58-1.204zM57.01 32.226c-.547 0-.99.44-.99.981v3.476c0 9.57-7.864 17.356-17.53 17.356-.684 0-1.373-.04-2.047-.117a.988.988 0 0 0-1.098.86.983.983 0 0 0 .869 1.088c.75.086 1.516.13 2.276.13C49.248 56 58 47.334 58 36.683v-3.476a.985.985 0 0 0-.99-.98zM38.586 0c-4.192 0-8.183 1.32-11.542 3.817a19.399 19.399 0 0 0-6.942 9.697.985.985 0 1 0 1.877.607 17.43 17.43 0 0 1 6.238-8.713 17.255 17.255 0 0 1 10.369-3.429c9.618 0 17.443 7.857 17.443 17.514v9.63c0 .547.44.99.985.99a.988.988 0 0 0 .986-.99v-9.63C58 8.745 49.29 0 38.586 0z"/>
            <path d="M25.341 41.838a.997.997 0 0 0-.443 1.326 15.404 15.404 0 0 0 5.498 6.215 14.945 14.945 0 0 0 8.12 2.395c2.181 0 4.289-.463 6.264-1.375a.996.996 0 0 0 .484-1.31.969.969 0 0 0-1.292-.491 12.924 12.924 0 0 1-5.456 1.196 13.02 13.02 0 0 1-7.074-2.086 13.435 13.435 0 0 1-4.795-5.42.968.968 0 0 0-1.306-.45zM47.919 48.075c.231 0 .464-.08.651-.244a15.23 15.23 0 0 0 5.214-11.45V19.444c0-3.263-1.026-6.377-2.966-9.007a.99.99 0 0 0-1.378-.21.977.977 0 0 0-.212 1.37 13.129 13.129 0 0 1 2.584 7.847V36.38c0 3.813-1.657 7.45-4.545 9.98a.976.976 0 0 0-.088 1.383c.194.22.466.332.74.332zM45.9 8.28c.173.117.37.173.566.173a1 1 0 0 0 .817-.416.951.951 0 0 0-.251-1.346 15.613 15.613 0 0 0-2.383-1.32 1.004 1.004 0 0 0-1.316.477.956.956 0 0 0 .49 1.282 13.6 13.6 0 0 1 2.078 1.15zM41.357 4.44a15.904 15.904 0 0 0-2.6-.214c-8.57 0-15.54 6.855-15.54 15.281V36a.99.99 0 0 0 .998.982.99.99 0 0 0 .998-.982V19.507c0-7.343 6.076-13.317 13.544-13.317.76 0 1.523.063 2.267.186a.996.996 0 0 0 1.151-.804.983.983 0 0 0-.818-1.132z"/>
            <path d="M29.18 12.885a.99.99 0 0 0 .263 1.366.97.97 0 0 0 1.354-.264c1.718-2.564 4.568-4.095 7.624-4.095 5.07 0 9.196 4.162 9.196 9.278v11.016a.98.98 0 0 0 .975.984.98.98 0 0 0 .976-.984V19.17c0-6.2-5-11.245-11.147-11.245-3.704 0-7.158 1.854-9.24 4.96zM28.486 22.717c.583 0 1.055-.43 1.055-.961v-2.304c0-.531-.472-.961-1.055-.961-.582 0-1.054.43-1.054.96v2.305c0 .53.472.961 1.054.961zM27.432 36.529c0 4.074 2.256 7.843 5.887 9.836a1.011 1.011 0 0 0 1.364-.38.976.976 0 0 0-.386-1.34c-2.998-1.645-4.86-4.755-4.86-8.116V25.815a.994.994 0 0 0-1.002-.985.994.994 0 0 0-1.003.985V36.53zM49.568 36.627v-1.814a.995.995 0 0 0-.99-1.002.995.995 0 0 0-.989 1.002v1.814c0 5.208-4.185 9.445-9.33 9.445-.752 0-1.5-.09-2.223-.27a.989.989 0 0 0-1.196.734c-.13.537.194 1.08.725 1.211a11.19 11.19 0 0 0 2.694.328c6.236 0 11.309-5.135 11.309-11.448z"/>
            <path d="M45.351 19.492c0-3.973-3.13-7.266-6.977-7.34a6.996 6.996 0 0 0-5.118 2.072 7.242 7.242 0 0 0-2.134 5.163v17.13c0 .548.436.992.975.992a.983.983 0 0 0 .975-.991v-17.13c0-1.42.55-2.751 1.55-3.749a5.092 5.092 0 0 1 3.715-1.504c2.792.054 5.064 2.457 5.064 5.357v9.413c0 .547.437.991.975.991a.983.983 0 0 0 .975-.991v-9.413z"/>
            <path d="M35.338 37.564c0 2.883 2.364 5.228 5.27 5.228 2.906 0 5.27-2.345 5.27-5.228v-4.833c0-.552-.45-1-1.007-1-.557 0-1.008.448-1.008 1v4.833c0 1.78-1.46 3.23-3.255 3.23s-3.255-1.45-3.255-3.23V29c0-.551-.451-.999-1.008-.999-.556 0-1.007.448-1.007 1v8.564z"/>
            <path d="M40.663 38.038c.552 0 1-.437 1-.975V19.524a3.147 3.147 0 0 0-3.005-3.143 3.18 3.18 0 0 0-2.337.847 3.064 3.064 0 0 0-.983 2.235v5.459c0 .538.447.975 1 .975.551 0 .999-.437.999-.975v-5.46c0-.312.128-.604.362-.821a1.17 1.17 0 0 1 .86-.312c.61.03 1.104.565 1.104 1.195v17.539c0 .538.448.975 1 .975z"/>
        </g>
        <g fill="#FFF" fill-rule="nonzero">
            <path d="M9.085 298.524c-4.453-3.277-7.111-8.525-7.111-14.038v-17.015c0-.5.021-1.003.063-1.497a.987.987 0 0 0-1.967-.167c-.046.55-.07 1.11-.07 1.664v17.015c0 3.09.746 6.164 2.158 8.891a19.584 19.584 0 0 0 5.756 6.733.986.986 0 0 0 1.172-1.585zM13.598 301.104a16.57 16.57 0 0 1-1.709-.709.94.94 0 0 0-1.256.444.948.948 0 0 0 .442 1.263c.617.297 1.257.562 1.903.788a.942.942 0 0 0 1.199-.582.948.948 0 0 0-.58-1.204zM38.01 280.226c-.547 0-.99.44-.99.981v3.476c0 9.57-7.864 17.356-17.53 17.356-.684 0-1.373-.04-2.047-.117a.988.988 0 0 0-1.098.86.983.983 0 0 0 .869 1.088c.75.086 1.516.13 2.276.13C30.248 304 39 295.334 39 284.683v-3.476a.985.985 0 0 0-.99-.98zM19.586 248c-4.192 0-8.183 1.32-11.542 3.817a19.399 19.399 0 0 0-6.942 9.697.985.985 0 1 0 1.877.607 17.43 17.43 0 0 1 6.238-8.713 17.255 17.255 0 0 1 10.369-3.429c9.618 0 17.443 7.857 17.443 17.514v9.63c0 .547.44.99.985.99a.988.988 0 0 0 .986-.99v-9.63C39 256.745 30.29 248 19.586 248z"/>
            <path d="M6.341 289.838a.997.997 0 0 0-.443 1.326 15.404 15.404 0 0 0 5.498 6.215 14.945 14.945 0 0 0 8.12 2.395c2.181 0 4.289-.463 6.264-1.375a.996.996 0 0 0 .484-1.31.969.969 0 0 0-1.292-.491 12.924 12.924 0 0 1-5.456 1.196 13.02 13.02 0 0 1-7.074-2.086 13.435 13.435 0 0 1-4.795-5.42.968.968 0 0 0-1.306-.45zM28.919 296.075c.231 0 .464-.08.651-.244a15.23 15.23 0 0 0 5.214-11.45v-16.936c0-3.263-1.026-6.377-2.966-9.007a.99.99 0 0 0-1.378-.21.977.977 0 0 0-.212 1.37 13.129 13.129 0 0 1 2.584 7.847v16.935c0 3.813-1.657 7.45-4.545 9.98a.976.976 0 0 0-.088 1.383c.194.22.466.332.74.332zM26.9 256.28c.173.117.37.173.566.173a1 1 0 0 0 .817-.416.951.951 0 0 0-.251-1.346 15.613 15.613 0 0 0-2.383-1.32 1.004 1.004 0 0 0-1.316.477.956.956 0 0 0 .49 1.282 13.6 13.6 0 0 1 2.078 1.15zM22.357 252.44a15.904 15.904 0 0 0-2.6-.214c-8.57 0-15.54 6.855-15.54 15.281V284a.99.99 0 0 0 .998.982.99.99 0 0 0 .998-.982v-16.492c0-7.343 6.076-13.317 13.544-13.317.76 0 1.523.063 2.267.186a.996.996 0 0 0 1.151-.804.983.983 0 0 0-.818-1.132z"/>
            <path d="M10.18 260.885a.99.99 0 0 0 .263 1.366.97.97 0 0 0 1.354-.264c1.718-2.564 4.568-4.095 7.624-4.095 5.07 0 9.196 4.162 9.196 9.278v11.016a.98.98 0 0 0 .975.984.98.98 0 0 0 .976-.984V267.17c0-6.2-5-11.245-11.147-11.245-3.704 0-7.158 1.854-9.24 4.96zM9.486 270.717c.583 0 1.055-.43 1.055-.961v-2.304c0-.531-.472-.961-1.055-.961-.582 0-1.054.43-1.054.96v2.305c0 .53.472.961 1.054.961zM8.432 284.529c0 4.074 2.256 7.843 5.887 9.836a1.011 1.011 0 0 0 1.364-.38.976.976 0 0 0-.386-1.34c-2.998-1.645-4.86-4.755-4.86-8.116v-10.714a.994.994 0 0 0-1.002-.985.994.994 0 0 0-1.003.985v10.714zM30.568 284.627v-1.814a.995.995 0 0 0-.99-1.002.995.995 0 0 0-.989 1.002v1.814c0 5.208-4.185 9.445-9.33 9.445-.752 0-1.5-.09-2.223-.27a.989.989 0 0 0-1.196.734c-.13.537.194 1.08.725 1.211a11.19 11.19 0 0 0 2.694.328c6.236 0 11.309-5.135 11.309-11.448z"/>
            <path d="M26.351 267.492c0-3.973-3.13-7.266-6.977-7.34a6.996 6.996 0 0 0-5.118 2.072 7.242 7.242 0 0 0-2.134 5.163v17.13c0 .548.436.992.975.992a.983.983 0 0 0 .975-.991v-17.13c0-1.42.55-2.751 1.55-3.749a5.092 5.092 0 0 1 3.715-1.504c2.792.054 5.064 2.457 5.064 5.357v9.413c0 .547.437.991.975.991a.983.983 0 0 0 .975-.991v-9.413z"/>
            <path d="M16.338 285.564c0 2.883 2.364 5.228 5.27 5.228 2.906 0 5.27-2.345 5.27-5.228v-4.833c0-.552-.45-1-1.007-1-.557 0-1.008.448-1.008 1v4.833c0 1.78-1.46 3.23-3.255 3.23s-3.255-1.45-3.255-3.23V277c0-.551-.451-.999-1.008-.999-.556 0-1.007.448-1.007 1v8.564z"/>
            <path d="M21.663 286.038c.552 0 1-.437 1-.975v-17.539a3.147 3.147 0 0 0-3.005-3.143 3.18 3.18 0 0 0-2.337.847 3.064 3.064 0 0 0-.983 2.235v5.459c0 .538.447.975 1 .975.551 0 .999-.437.999-.975v-5.46c0-.312.128-.604.362-.821a1.17 1.17 0 0 1 .86-.312c.61.03 1.104.565 1.104 1.195v17.539c0 .538.448.975 1 .975z"/>
        </g>
        <path stroke="#FFF" stroke-linecap="square" stroke-width="2" d="M119 98h33.734M119 98V51M119 50.5h-12.565M75.75 50.333h-5.274"/>
        <path fill="url(#a)" stroke="#FFF" stroke-linecap="square" stroke-width="2" d="M68.75 31.52H66"/>
        <path stroke="#FFF" stroke-linecap="square" stroke-width="2" d="M69.667 31.52v18.81M270 259v48M345 316h-48M387.468 73.5H351M387.667 72.449v-9.175M326.987 73.782H265M146.47 211.667H84.476M50 211H20M20 241v-30"/>
        <text fill="#FFF" font-family=".AppleSystemUIFont" font-size="13" letter-spacing=".929">
            <tspan x="272.681" y="320">FR</tspan> <tspan x="276.694" y="336">A</tspan>
        </text>
        <text fill="#FFF" font-family=".AppleSystemUIFont" font-size="13" letter-spacing=".929">
            <tspan x="334.737" y="79">U</tspan> <tspan x="335.292" y="95">K</tspan>
        </text>
        <text fill="#FFF" font-family=".AppleSystemUIFont" font-size="13" letter-spacing=".929">
            <tspan x="81.564" y="55">RU</tspan> <tspan x="86.932" y="71">S</tspan>
        </text>
        <text fill="#FFF" font-family=".AppleSystemUIFont" font-size="13" letter-spacing=".929">
            <tspan x="54.31" y="216">JAP</tspan>
        </text>
    </g>
</svg>
