<svg xmlns="http://www.w3.org/2000/svg" width="371" height="311" viewBox="0 0 371 311">
    <g fill="none" fill-rule="evenodd">
        <circle cx="155.5" cy="155.5" r="155.5" fill="#080808"/>
        <path fill="#FFF" d="M258.275 189.806l-10.84-59.366-18.011 41.733c-.739 1.711-2.418 2.875-4.383 3.038-1.978.161-3.855-.713-4.902-2.29l-5.98-9.006c-.594-.894-1.687-1.45-2.852-1.45h-29.065c-1.362 0-2.569.728-3.075 1.854l-8.165 18.162c-.904 2.01-3.071 3.2-5.391 2.963-2.302-.238-4.135-1.828-4.562-3.956l-6.807-33.91-6.974 21.817c-.52 1.624-2.08 2.714-3.882 2.714h-10.792c-1.968 0-3.647-1.323-3.99-3.145l-7.843-41.532-12.742 15.746H96.876l-5.198 13.766c-.806 2.135-2.961 3.44-5.381 3.24-2.397-.194-4.284-1.815-4.695-4.033l-6.457-34.784-14.486 59.518c-.528 2.171-2.481 3.697-4.86 3.797-2.383.101-4.48-1.26-5.21-3.388l-12.87-37.488-8.445 23.481H2.661c-1.47 0-2.661-1.135-2.661-2.535 0-1.4 1.191-2.535 2.661-2.535h22.81l7.297-20.287c.733-2.037 2.69-3.347 4.99-3.329 2.298.015 4.236 1.347 4.938 3.393l12.853 37.439 14.513-59.63c.559-2.301 2.706-3.863 5.235-3.801 2.518.063 4.577 1.728 5.008 4.049l6.475 34.882 5.123-13.565c.737-1.95 2.717-3.26 4.928-3.26h8.57l11.244-13.893c1.264-1.562 3.396-2.266 5.429-1.794 2.031.473 3.52 1.964 3.884 3.893l7.69 40.725h8.809l6.799-21.267c.705-2.206 2.83-3.606 5.29-3.48 2.45.125 4.4 1.724 4.852 3.979l6.82 33.972 8.056-17.92c1.346-2.993 4.473-4.927 7.968-4.927h29.065c3.018 0 5.766 1.424 7.35 3.809l5.906 8.896 18.062-41.85c.888-2.056 3.07-3.274 5.425-3.027 2.338.243 4.176 1.865 4.572 4.034l10.827 59.299 4.604-14.933c1.851-6.006 7.867-10.201 14.63-10.201H294c1.47 0 2.661 1.135 2.661 2.535 0 1.4-1.192 2.535-2.661 2.535h-11.317c-4.417 0-8.333 2.697-9.523 6.56l-4.712 15.285c-.661 2.145-2.646 3.534-4.998 3.534-2.807-.143-4.756-1.773-5.175-4.066z"/>
        <path fill="#FFF" d="M311.489 165.638a8.788 8.788 0 0 1-9.852 9.85c-3.91-.494-7.07-3.654-7.565-7.567-.721-5.743 4.106-10.573 9.846-9.849 3.915.494 7.075 3.653 7.57 7.566"/>
        <text fill="#FFF" font-family="Overpass, sans-serif" font-size="23" letter-spacing="1.714">
            <tspan x="329.858" y="173">170</tspan>
        </text>
    </g>
</svg>
